<svg style="display: none;">
    <symbol id="mono" xmlns="http://www.w3.org/2000/svg" viewBox="0 0 24 24">
        <path
            d="M13.8367 20C13.6284 19.9375 13.4148 19.875 13.1961 19.8125C12.9773 19.75 12.7638 19.6823 12.5555 19.6094C12.4201 19.5573 12.2847 19.4974 12.1493 19.4297C12.0138 19.362 11.8784 19.2917 11.743 19.2188C11.2118 18.948 10.6727 18.7683 10.1259 18.6797C9.57903 18.5912 9.01395 18.5834 8.43064 18.6563C8.13898 18.698 7.84733 18.724 7.55567 18.7344C7.26402 18.7448 6.97757 18.724 6.69633 18.6719C6.01927 18.5469 5.50366 18.1954 5.14951 17.6173C4.79536 17.0392 4.6964 16.4012 4.85265 15.7033C4.96723 15.1721 5.17816 14.7085 5.48544 14.3127C5.79272 13.9169 6.17031 13.5732 6.61821 13.2815C6.98278 13.0419 7.32912 12.7815 7.65723 12.5003C7.98534 12.219 8.30564 11.9274 8.61813 11.6253C8.80563 11.4378 8.99572 11.2555 9.18842 11.0785C9.38113 10.9014 9.58164 10.7295 9.78996 10.5628C10.4566 10.0004 11.1623 9.83631 11.9071 10.0707C12.6518 10.305 13.1753 10.6826 13.4773 11.2035C13.6336 11.4743 13.7794 11.7581 13.9148 12.055C14.0502 12.3518 14.1804 12.6461 14.3054 12.9378C14.4408 13.2607 14.5945 13.5732 14.7663 13.8752C14.9382 14.1773 15.1335 14.4637 15.3523 14.7346C15.6127 15.0783 15.8288 15.4429 16.0007 15.8283C16.1725 16.2137 16.2793 16.6251 16.321 17.0626C16.4147 17.8334 16.2142 18.5079 15.7194 19.086C15.2247 19.6641 14.6075 19.9479 13.8679 19.9375C13.8575 19.9479 13.8523 19.9557 13.8523 19.9609C13.8523 19.9661 13.8471 19.9792 13.8367 20ZM16.8835 7.06298C16.8522 7.63587 16.722 8.1645 16.4928 8.64886C16.2637 9.13321 15.9095 9.55247 15.4304 9.90662C14.8158 10.3545 14.2221 10.4613 13.6492 10.2269C13.0763 9.99256 12.7169 9.50039 12.5711 8.75042C12.4461 8.11502 12.5373 7.45098 12.8445 6.7583C13.1518 6.06562 13.5867 5.55262 14.1492 5.2193C14.7846 4.84431 15.3757 4.80004 15.9225 5.08649C16.4694 5.37294 16.7845 5.89115 16.8678 6.64112C16.8678 6.70362 16.8704 6.76872 16.8756 6.83642C16.8808 6.90413 16.8835 6.97965 16.8835 7.06298ZM11.7899 6.73487C11.7899 7.0786 11.7482 7.40672 11.6649 7.7192C11.5816 8.03169 11.4409 8.32856 11.243 8.6098C10.8576 9.17228 10.3863 9.45612 9.82903 9.46133C9.27175 9.46654 8.79521 9.19832 8.39939 8.65667C8.01399 8.11502 7.82129 7.46401 7.82129 6.70362C7.82129 5.94323 8.0192 5.29742 8.41502 4.76619C8.80042 4.25579 9.26134 4.00059 9.79778 4.00059C10.3342 4.00059 10.7951 4.25058 11.1805 4.75056C11.3784 5.01097 11.5295 5.31304 11.6336 5.65678C11.7378 6.00052 11.7899 6.35988 11.7899 6.73487ZM15.3054 12.4378C15.3054 11.8232 15.5163 11.2451 15.9382 10.7035C16.36 10.1618 16.8626 9.81809 17.4459 9.67226C17.998 9.53685 18.4693 9.61497 18.8599 9.90662C19.2506 10.1983 19.4615 10.6358 19.4927 11.2191C19.5344 11.8545 19.3287 12.469 18.8756 13.0628C18.4225 13.6565 17.8834 14.0106 17.2584 14.1252C16.7064 14.2398 16.2429 14.133 15.8679 13.8049C15.4929 13.4768 15.3054 13.0211 15.3054 12.4378ZM7.74317 9.96912C7.74317 10.3129 7.7041 10.6227 7.62598 10.8988C7.54786 11.1748 7.42026 11.4274 7.24318 11.6566C6.99319 11.969 6.69112 12.1565 6.33697 12.219C5.98281 12.2815 5.63387 12.219 5.29013 12.0315C4.96723 11.8441 4.70682 11.5889 4.50891 11.2659C4.30058 10.943 4.15476 10.5967 4.07143 10.2269C3.9881 9.85715 3.97768 9.47956 4.04018 9.09415C4.09226 8.71917 4.22246 8.38064 4.43079 8.07857C4.68078 7.73483 4.99587 7.5213 5.37607 7.43797C5.75626 7.35463 6.12864 7.42755 6.49321 7.65671C6.9307 7.92753 7.24058 8.26866 7.42286 8.68011C7.60515 9.09155 7.71192 9.52122 7.74317 9.96912Z"
            fill="inherit" />
    </symbol>
    <symbol id="privat" xmlns="http://www.w3.org/2000/svg" viewBox="0 0 24 24">
        <path
            d="M12.7965 12.8909V5.78178C13.7653 5.78178 14.6715 5.96927 15.5152 6.34426C16.3693 6.71924 17.1167 7.22704 17.7573 7.86764C18.3979 8.50824 18.9005 9.26081 19.2651 10.1254C19.64 10.9899 19.8275 11.9118 19.8275 12.8909C19.8275 13.87 19.64 14.7919 19.2651 15.6564C18.9005 16.5105 18.3979 17.2605 17.7573 17.9063C17.1167 18.5521 16.3693 19.0625 15.5152 19.4375C14.6715 19.8125 13.7653 20 12.7965 20C11.8278 20 10.9164 19.8125 10.0623 19.4375C9.20814 19.0625 8.46338 18.5521 7.82798 17.9063C7.19259 17.2605 6.6874 16.5105 6.31241 15.6564C5.94784 14.7919 5.76556 13.87 5.76556 12.8909H12.7965ZM11.031 11.1097H4C4 10.641 4.04167 10.1774 4.125 9.71913C4.21874 9.26081 4.34895 8.81552 4.51561 8.38324C4.68227 7.95097 4.8958 7.53692 5.15621 7.1411C5.4062 6.74528 5.69265 6.38071 6.01555 6.04739C6.34887 5.71407 6.71344 5.41721 7.10926 5.1568C7.49466 4.90681 7.9009 4.69588 8.32796 4.52401C8.75503 4.35214 9.19772 4.21933 9.65604 4.12559C10.1144 4.04226 10.5727 4.00059 11.031 4.00059V11.1097Z"
            fill="#inherit" />
    </symbol>
    <symbol id="credit" xmlns="http://www.w3.org/2000/svg" viewBox="0 0 24 24">
        <path
            d="M5 18.5V10H19V18.5C19 18.7083 18.9635 18.901 18.8906 19.0781C18.8177 19.2552 18.7083 19.4167 18.5625 19.5625C18.4167 19.7083 18.2552 19.8177 18.0781 19.8906C17.901 19.9635 17.7083 20 17.5 20H6.5C6.29167 20 6.09896 19.9635 5.92188 19.8906C5.74479 19.8177 5.58333 19.7083 5.4375 19.5625C5.29167 19.4167 5.18229 19.2552 5.10938 19.0781C5.03646 18.901 5 18.7083 5 18.5ZM17.5 6C17.7083 6 17.901 6.03646 18.0781 6.10938C18.2552 6.18229 18.4167 6.29167 18.5625 6.4375C18.7083 6.58333 18.8177 6.74479 18.8906 6.92188C18.9635 7.09896 19 7.29167 19 7.5V9H5V7.5C5 7.29167 5.03646 7.09896 5.10938 6.92188C5.18229 6.74479 5.29167 6.58333 5.4375 6.4375C5.58333 6.29167 5.74479 6.18229 5.92188 6.10938C6.09896 6.03646 6.29167 6 6.5 6H8V4.5C8 4.42708 8.01042 4.36198 8.03125 4.30469C8.05208 4.2474 8.08333 4.19792 8.125 4.15625C8.17708 4.10417 8.23438 4.0651 8.29688 4.03906C8.35938 4.01302 8.42708 4 8.5 4H9.5C9.57292 4 9.63802 4.01302 9.69531 4.03906C9.7526 4.0651 9.80208 4.10417 9.84375 4.15625C9.89583 4.19792 9.9349 4.2474 9.96094 4.30469C9.98698 4.36198 10 4.42708 10 4.5V6H14V4.5C14 4.42708 14.0104 4.36198 14.0312 4.30469C14.0521 4.2474 14.0833 4.19792 14.125 4.15625C14.1771 4.10417 14.2344 4.0651 14.2969 4.03906C14.3594 4.01302 14.4271 4 14.5 4H15.5C15.5729 4 15.638 4.01302 15.6953 4.03906C15.7526 4.0651 15.8021 4.10417 15.8438 4.15625C15.8958 4.19792 15.9349 4.2474 15.9609 4.30469C15.987 4.36198 16 4.42708 16 4.5V6H17.5Z"
            fill="#inherit" />
    </symbol>
</svg>